<?xml version="1.0" encoding="UTF-8"?>
<!DOCTYPE svg PUBLIC "-//W3C//DTD SVG 1.0//EN" "http://www.w3.org/TR/2001/REC-SVG-20010904/DTD/svg10.dtd">
<!-- Creator: CorelDRAW X7 -->
<?xml-stylesheet href="LT.css" type="text/css"?>
<svg xmlns="http://www.w3.org/2000/svg" xml:space="preserve" width="210mm" height="297mm" version="1.0" style="shape-rendering:geometricPrecision; text-rendering:geometricPrecision; image-rendering:optimizeQuality; fill-rule:evenodd; clip-rule:evenodd"
viewBox="0 0 21000 29700"
 xmlns:xlink="http://www.w3.org/1999/xlink"
 zoomAndPan="magnify">
 <g id="Layer_x0020_1">
  <metadata id="CorelCorpID_0Corel-Layer"/>
  <rect class="fil0" x="4481" y="8392" width="15875" height="15875"/>
  <path class="fil1" d="M6268 17365c-192,43 -545,-164 -783,-111 -289,64 -498,318 -498,659 0,317 324,684 925,684 808,0 1045,-649 1045,-649 0,0 1645,704 3011,704 853,0 1235,-404 1235,-961 0,-339 -120,-470 -120,-470 0,0 -289,261 -884,417 -531,139 -1295,165 -1841,98 -556,-69 -1097,-213 -1424,-272 168,-1632 608,-3016 1121,-4559 219,-660 749,-1755 297,-2224 -353,-366 -1891,-235 -2375,-143 -638,121 -1122,376 -1434,720 -456,500 -433,1450 294,1735 601,237 1367,225 1367,-433 0,-66 -11,-99 -11,-99 -203,91 -389,102 -549,82 -312,-39 -702,-179 -659,-565 84,-762 1557,-1085 2176,-892 161,51 311,133 336,444 24,303 -92,846 -259,1498 -378,1477 -756,2810 -970,4337zm-68 258c-281,31 -579,-249 -829,-59 -258,195 -149,552 190,584 190,18 564,-39 639,-525z"/>
  <path class="fil1" d="M8865 13486c0,631 420,1051 1103,1051 536,0 798,-336 798,-588 0,-63 -10,-95 -10,-95 0,0 -63,32 -179,32 -262,0 -420,-190 -420,-484 0,-598 515,-1134 1471,-1134 399,0 546,42 871,105 0,0 -10,158 -52,410l-988 5640c-136,809 11,1145 788,1145 431,0 599,-105 599,-105 -289,65 -593,-186 -602,-635 -31,-1755 950,-5565 1089,-6273 609,189 1519,543 2265,543 913,0 1271,-441 1271,-987 0,-168 -64,-295 -116,-347 0,0 -378,168 -987,168 -2080,0 -2910,-242 -4117,-242 -1859,0 -2784,757 -2784,1796z"/>
 </g>
</svg>
